<svg width="16" height="16" viewBox="0 0 16 16" fill="none" xmlns="http://www.w3.org/2000/svg">
<path d="M1.66026 8.04205C1.97238 8.95057 2.55717 9.7883 3.03767 10.2722C3.05675 10.9353 3.24985 11.8338 3.95725 12.5175C4.76453 13.2978 6.10433 13.6696 8.18224 13.3017C10.4596 13.5564 11.9105 13.1213 12.7599 12.3252C13.565 11.5706 13.7309 10.5845 13.6346 9.85707C13.8574 9.23428 14.1169 8.76475 14.3624 8.32058C14.4696 8.12654 14.5742 7.93733 14.6718 7.7423C14.8317 7.42311 14.9737 7.08028 15.0177 6.70615C15.0635 6.31737 15.0002 5.92817 14.8039 5.52115C14.4494 4.78575 13.8909 4.39943 13.3326 4.23523C13.064 4.15625 12.7989 4.12923 12.5585 4.13467C12.4165 3.47232 11.9782 2.63793 10.9339 2.1538C10.1792 1.80392 9.50409 1.90002 8.98465 2.1878C8.79819 2.2911 8.63471 2.41706 8.4946 2.55129C8.30704 2.3342 8.07423 2.12601 7.79675 1.96605C7.18603 1.614 6.39517 1.52067 5.52258 2.001C4.39454 2.62194 4.0357 3.5691 3.99394 4.35403C3.52973 4.2721 2.95474 4.34438 2.37984 4.80459C1.2565 5.70382 1.30551 7.00943 1.66026 8.04205Z" fill="white" stroke="#FFB69D" stroke-width="1.05484" stroke-linecap="round" stroke-linejoin="round"/>
<ellipse cx="1.00681" cy="1.14738" rx="1.00681" ry="1.14738" transform="matrix(0.998776 -0.0265816 0.0263516 1.00052 5.78516 3.45703)" fill="#FF9B79"/>
<ellipse cx="1.00681" cy="1.14738" rx="1.00681" ry="1.14738" transform="matrix(0.998776 -0.0265816 0.0263516 1.00052 2.77539 5.72656)" fill="#FF9B79"/>
<ellipse cx="1.00681" cy="1.14738" rx="1.00681" ry="1.14738" transform="matrix(0.998776 -0.0265816 0.0263516 1.00052 9.17188 3.45703)" fill="#FF9B79"/>
<ellipse cx="1.00681" cy="1.14738" rx="1.00681" ry="1.14738" transform="matrix(0.998776 -0.0265816 0.0263516 1.00052 11.8066 5.72656)" fill="#FF9B79"/>
<path d="M6.14679 8.16779C4.80034 8.47094 4.70942 9.85871 5.2266 10.7424C5.74377 11.6262 6.58775 11.5363 7.15887 11.2002C7.61576 10.9314 8.22704 11.0307 8.47557 11.1139C10.5076 11.9065 11.8248 10.9082 11.6574 9.37211C11.5236 8.1432 10.3361 7.81863 9.75902 7.80996C9.43569 7.30915 8.68242 7.11889 8.3462 7.08636C7.61885 6.95881 7.25071 7.48903 7.03748 7.80851C6.86689 8.06409 6.37261 8.15452 6.14679 8.16779Z" fill="#FF9B79"/>
</svg>
