<svg width="24" height="20" viewBox="0 0 24 20" fill="none" xmlns="http://www.w3.org/2000/svg">
<path d="M2.56335 11.3853L11.2541 19.5493C11.4584 19.7412 11.5605 19.8371 11.6699 19.889C11.8789 19.988 12.1212 19.988 12.3301 19.889C12.4395 19.8371 12.5416 19.7412 12.7459 19.5493L21.4367 11.3853C23.8819 9.08824 24.1788 5.30825 22.1223 2.65758L21.7356 2.15918C19.2753 -1.01178 14.337 -0.479983 12.6083 3.14206C12.3641 3.6537 11.6359 3.6537 11.3917 3.14206C9.66296 -0.479983 4.72465 -1.01177 2.26443 2.15918L1.87774 2.65759C-0.178815 5.30825 0.118128 9.08824 2.56335 11.3853Z" fill="#9E9C9D"/>
</svg>
