<svg width="25" height="20" viewBox="0 0 25 20" fill="none" xmlns="http://www.w3.org/2000/svg">
<path d="M23.6247 12.8337V9.04199C23.6247 7.15637 23.6247 6.21357 23.0389 5.62778C22.4531 5.04199 21.5103 5.04199 19.6247 5.04199H15.3649C14.5474 5.04199 14.1386 5.04199 13.7711 4.88975C13.4035 4.73751 13.1145 4.44848 12.5364 3.87042L10.6296 1.96357C10.0515 1.3855 9.76249 1.09647 9.39495 0.944233C9.02741 0.791992 8.61865 0.791992 7.80115 0.791992H4.95801C3.07239 0.791992 2.12958 0.791992 1.54379 1.37778C0.958008 1.96357 0.958008 2.90637 0.958008 4.79199V15.2087C0.958008 17.0943 0.958008 18.0371 1.54379 18.6229C2.12958 19.2087 3.07239 19.2087 4.95801 19.2087H17.2497" stroke="#949494" stroke-width="1.5" stroke-linecap="round"/>
</svg>
