<svg width="21" height="21" viewBox="0 0 21 21" fill="none" xmlns="http://www.w3.org/2000/svg">
<path d="M12.7009 17.7027L12.7009 17.7027L2.56522 7.56703L2.53635 7.53817C2.14769 7.14955 1.81281 6.81471 1.58071 6.5105C1.33196 6.18448 1.14362 5.82188 1.14362 5.375C1.14362 4.92812 1.33196 4.56552 1.58071 4.2395C1.81282 3.93528 2.1477 3.60044 2.53638 3.21181L2.56522 3.18297L3.18297 2.56522L3.21184 2.53634C3.60046 2.14768 3.93529 1.81281 4.2395 1.58071C4.56552 1.33197 4.92812 1.14362 5.375 1.14362C5.82188 1.14362 6.18448 1.33197 6.5105 1.58071C6.81471 1.81282 7.14956 2.1477 7.53818 2.53637L7.56703 2.56522L17.7027 12.7009C17.7163 12.7145 17.7299 12.7281 17.7434 12.7415C17.9449 12.9426 18.1232 13.1205 18.2489 13.3425C18.3746 13.5645 18.4354 13.809 18.5042 14.0852C18.5088 14.1037 18.5134 14.1223 18.5181 14.141L19.4759 17.9721C19.4786 17.9831 19.4814 17.9942 19.4842 18.0053C19.5328 18.1996 19.5848 18.407 19.6018 18.5813C19.6206 18.7732 19.6162 19.0969 19.3566 19.3566C19.0969 19.6162 18.7732 19.6206 18.5813 19.6018C18.407 19.5848 18.1995 19.5328 18.0053 19.4842C17.9942 19.4814 17.9831 19.4786 17.9721 19.4759L14.141 18.5181C14.1223 18.5134 14.1037 18.5088 14.0852 18.5042C13.809 18.4354 13.5645 18.3746 13.3425 18.2489C13.1205 18.1232 12.9426 17.9449 12.7416 17.7434C12.7293 17.7311 12.7169 17.7187 12.7044 17.7062C12.7032 17.705 12.7021 17.7039 12.7009 17.7027Z" stroke="#9E9C9D" stroke-width="1.24"/>
</svg>
