<svg width="21" height="21" viewBox="0 0 21 21" fill="none" xmlns="http://www.w3.org/2000/svg">
<path fill-rule="evenodd" clip-rule="evenodd" d="M9.13663 11.0329L2.87534 9.01851C1.11795 8.4531 0.239258 8.1704 0.239258 7.64446C0.239258 7.11851 1.11795 6.83581 2.87534 6.27041L18.4783 1.25049C19.6778 0.864576 20.2775 0.67162 20.5896 0.990406C20.9017 1.30919 20.696 1.9047 20.2847 3.09572L15.0508 18.2508C14.4841 19.8917 14.2007 20.7122 13.6865 20.7122C13.1722 20.7122 12.8888 19.8917 12.3221 18.2508L10.1758 12.036L15.4445 6.95075C15.7313 6.67394 15.7394 6.21705 15.4626 5.93026C15.1858 5.64347 14.7289 5.63537 14.4421 5.91218L9.13663 11.0329Z" fill="#9E9C9D"/>
</svg>
