<svg width="37" height="37" viewBox="0 0 37 37" fill="none" xmlns="http://www.w3.org/2000/svg">
<path d="M5.97374 12.2234C3.78705 14.0518 3.81715 16.7168 4.58306 19.0456C5.31417 21.2686 6.74724 23.3102 7.79462 24.3185C7.77781 25.8064 8.12732 27.9153 9.66429 29.4671C11.2792 31.0976 14.0933 32.0047 18.8082 31.1094C24.0032 31.7374 27.0958 30.6855 28.8184 28.9989C30.5068 27.3459 30.7985 25.1618 30.5476 23.6152C31.1009 21.9405 31.779 20.6583 32.3794 19.5229C32.6175 19.0726 32.8434 18.6455 33.0445 18.226C33.3977 17.4892 33.6735 16.7726 33.7579 16.0238C33.8435 15.2641 33.73 14.4941 33.3423 13.6539C32.6346 12.1206 31.5407 11.3401 30.4534 11.006C29.6389 10.7558 28.8376 10.7583 28.2133 10.8643C28.1227 9.47006 27.3698 7.1924 24.8237 5.95944C23.3298 5.23603 22.0431 5.44337 21.0588 6.01297C20.3854 6.40268 19.8599 6.95682 19.4952 7.48019C19.0618 6.76996 18.4043 5.99365 17.5416 5.47412C16.3664 4.76652 14.8418 4.5577 13.0899 5.56503C10.2426 7.20222 9.81771 9.88549 10.0336 11.6419C9.85326 11.5536 9.64802 11.4693 9.42149 11.4021C8.49975 11.1285 7.25838 11.1492 5.97374 12.2234Z" fill="white" stroke="#525252" stroke-width="0.816399" stroke-linecap="round" stroke-linejoin="round"/>
<ellipse cx="1.9" cy="2.08878" rx="1.9" ry="2.08878" transform="matrix(0.991199 -0.0275559 0.0254032 1.0075 14.3379 9.60059)" fill="#FF9B79"/>
<ellipse cx="1.9" cy="2.08878" rx="1.9" ry="2.08878" transform="matrix(0.991199 -0.0275559 0.0254032 1.0075 21.6943 9.60059)" fill="#FF9B79"/>
<ellipse cx="1.9" cy="2.12125" rx="1.9" ry="2.12125" transform="matrix(0.991199 -0.0275559 0.0254032 1.0075 27.3115 14.7568)" fill="#FF9B79"/>
<path d="M13.7781 10.5961C13.7007 10.8756 13.6622 11.176 13.6701 11.4879C13.7063 12.9251 14.7127 14.0629 15.9178 14.0294C17.123 13.9959 18.0706 12.8037 18.0344 11.3666C17.9981 9.92945 16.9918 8.79157 15.7866 8.82508C15.3693 8.83668 14.9828 8.98725 14.6574 9.23883" stroke="#525252" stroke-width="0.816399" stroke-linecap="round" stroke-linejoin="round"/>
<ellipse cx="1.83495" cy="2.15662" rx="1.83495" ry="2.15662" transform="matrix(0.991199 -0.0275559 0.0254032 1.0075 7.90625 14.6152)" fill="#FF9B79"/>
<path d="M7.28894 15.5954C7.18171 15.9155 7.12666 16.267 7.13592 16.6344C7.17216 18.0715 8.17851 19.2094 9.38366 19.1759C10.5888 19.1424 11.5364 17.9502 11.5002 16.5131C11.4639 15.0759 10.4576 13.9381 9.25244 13.9716C8.81969 13.9836 8.42016 14.145 8.08746 14.4135" stroke="#525252" stroke-width="0.816399" stroke-linecap="round" stroke-linejoin="round"/>
<path d="M21.1188 10.6309C21.0474 10.9011 21.0122 11.1901 21.0197 11.4899C21.0559 12.927 22.0623 14.0649 23.2675 14.0314C24.4726 13.9979 25.4202 12.8057 25.384 11.3685C25.3477 9.9314 24.3414 8.79353 23.1362 8.82703C22.7843 8.83681 22.4544 8.94538 22.1645 9.12999" stroke="#525252" stroke-width="0.816399" stroke-linecap="round" stroke-linejoin="round"/>
<path d="M26.8553 15.7013C26.7701 15.9924 26.7273 16.3071 26.7355 16.6344C26.7718 18.0715 27.7781 19.2094 28.9833 19.1759C30.1884 19.1424 31.136 17.9502 31.0998 16.5131C31.0635 15.0759 30.0572 13.9381 28.852 13.9716C28.4409 13.983 28.0597 14.1293 27.7373 14.3742" stroke="#525252" stroke-width="0.816399" stroke-linecap="round" stroke-linejoin="round"/>
<path d="M15.1891 20.2062C12.6012 20.8149 12.4264 23.6011 13.4204 25.3753C14.4145 27.1496 16.0366 26.9691 17.1343 26.2945C18.0124 25.7548 19.1873 25.9541 19.665 26.1212C23.5705 27.7123 26.1022 25.7082 25.7806 22.6241C25.5233 20.1569 23.2409 19.5052 22.1318 19.4878C21.5104 18.4824 20.0626 18.1004 19.4163 18.0351C18.0184 17.779 17.3108 18.8435 16.901 19.4849C16.5731 19.998 15.6231 20.1796 15.1891 20.2062Z" fill="#FF9B79"/>
<path d="M16.3173 18.7515C16.7801 18.0273 17.5789 16.8254 19.1573 17.1146C19.8869 17.1883 21.5215 17.6196 22.2232 18.7548C23.4754 18.7744 26.0524 19.5101 26.3428 22.2958C26.7059 25.7778 23.8475 28.0406 19.438 26.2441C18.8987 26.0554 17.5722 25.8304 16.5808 26.4397C15.3414 27.2014 13.51 27.4052 12.3877 25.402C11.5245 23.8614 11.4419 21.6449 12.779 20.3908" stroke="#525252" stroke-width="0.816399" stroke-linecap="round" stroke-linejoin="round"/>
</svg>
