<svg width="19" height="44" viewBox="0 0 19 44" fill="none" xmlns="http://www.w3.org/2000/svg">
<rect x="0.4082" y="1.4082" width="17.9514" height="7.62911" rx="2.87617" fill="white" stroke="#525252" stroke-width="0.816399"/>
<path d="M4.7293 3.91454C5.17979 3.21682 0.938473 3.02395 0.938477 2.32639C0.938482 1.14139 2.68682 1 3.87182 1H14.5453C15.8727 1 16.98 2.01452 17.0958 3.33686C17.0958 4.38344 14.8268 5.69195 14.0759 5.69195C13.5128 5.69195 12.6684 4.812 12.6684 3.76543C12.6684 2.71885 10.604 2.18103 9.85318 2.32639C9.29006 2.47174 7.3017 3.07861 7.3017 3.76543C7.3017 4.45224 6.88733 4.58572 6.56882 5.22275C6.09962 6.16114 4.16618 4.78668 4.7293 3.91454Z" fill="#FF865D"/>
<path d="M7.50725 5.22275C7.50725 6.25298 6.73195 5.80225 6.13571 6.45636C5.53947 7.11046 3.59175 5.80225 4.18799 4.49403C4.66498 3.44746 0.938473 4.03593 0.938477 2.98958V2.98958C0.938482 1.44316 2.97228 1 4.5187 1H14.7936C16.4703 1 17.8295 2.35923 17.8295 4.03593V4.03593C17.8295 5.60579 14.4334 6.45636 13.6384 6.45636C13.0422 6.45636 11.8497 6.06389 11.8497 4.49403C11.8497 2.92417 10.2597 2.96778 9.46473 3.18581C9.1175 3.31279 8.84401 3.38725 8.44564 3.81517" stroke="#525252" stroke-width="0.816399" stroke-linecap="round"/>
<path d="M9.78382 42.286C8.93128 42.286 8.11366 42.0095 7.51083 41.5173C6.90799 41.0251 6.56934 40.3575 6.56934 39.6614L7.96694 25.3975H11.7405L13.1381 39.6614C13.1385 40.0159 13.051 40.3668 12.8807 40.6929C12.7105 41.019 12.4611 41.3136 12.1477 41.5588C11.8342 41.8041 11.4632 41.995 11.0569 42.12C10.6506 42.2449 10.2176 42.3014 9.78382 42.286Z" fill="#FE6A38"/>
<path d="M15.953 19.7667C15.7356 20.8103 15.0001 21.7633 13.8805 22.4523C12.761 23.1413 11.3318 23.5203 9.85347 23.5203C8.37511 23.5203 6.94593 23.1413 5.82636 22.4523C4.70678 21.7633 3.97129 20.8103 3.75391 19.7667H15.953Z" fill="white"/>
<path d="M6.19676 34.7814L7.17041 25.3975H11.3272L12.8667 40.2355C12.8671 40.6042 12.7707 40.9692 12.5832 41.3085C12.3957 41.6477 12.121 41.9541 11.7757 42.2092C11.4305 42.4644 11.0217 42.6629 10.5742 42.7929C10.1267 42.9229 9.64959 42.9817 9.1718 42.9657C8.23268 42.9657 7.33202 42.678 6.66797 42.166C6.00391 41.654 5.63086 40.9596 5.63086 40.2355L5.91381 37.5084" stroke="#525252" stroke-width="0.816399" stroke-linecap="round" stroke-linejoin="round"/>
<path d="M4.22306 22.4194C3.48053 21.6598 2.99102 20.745 2.81543 19.7666H15.9529C15.7188 21.071 14.9267 22.2624 13.721 23.1236C12.5153 23.9848 10.9763 24.4586 9.38418 24.4586C8.33445 24.4586 7.30775 24.2526 6.38447 23.8654" stroke="#525252" stroke-width="0.816399" stroke-linecap="round" stroke-linejoin="round"/>
<path d="M2.81543 10.3828L2.81543 18.8283" stroke="#525252" stroke-width="0.816399" stroke-linecap="round" stroke-linejoin="round"/>
<path d="M9.38379 10.3828L9.38379 18.8283" stroke="#525252" stroke-width="0.816399" stroke-linecap="round" stroke-linejoin="round"/>
<path d="M15.9531 10.3828L15.9531 18.8283" stroke="#525252" stroke-width="0.816399" stroke-linecap="round" stroke-linejoin="round"/>
</svg>
