<svg width="32" height="37" viewBox="0 0 32 37" fill="none" xmlns="http://www.w3.org/2000/svg">
<path d="M2.14941 15.252V34.0363C2.14941 34.705 2.4185 35.3463 2.89747 35.8192C3.37644 36.292 4.02607 36.5576 4.70344 36.5576H22.3262C23.0036 36.5576 23.6532 36.292 24.1322 35.8192C24.6112 35.3463 24.8803 34.705 24.8803 34.0363V15.252" fill="#FF865D"/>
<path d="M2.14941 15.252V34.0363C2.14941 34.705 2.4185 35.3463 2.89747 35.8192C3.37644 36.292 4.02607 36.5576 4.70344 36.5576H22.3262C23.0036 36.5576 23.6532 36.292 24.1322 35.8192C24.6112 35.3463 24.8803 34.705 24.8803 34.0363V15.252" stroke="#525252" stroke-width="0.820432" stroke-linecap="round" stroke-linejoin="round"/>
<path d="M24.8799 18.4023H28.8386C29.3128 18.4023 29.7675 18.5883 30.1028 18.9193C30.4381 19.2503 30.6264 19.6992 30.6264 20.1673V28.1097C30.6264 28.5778 30.4381 29.0267 30.1028 29.3577C29.7675 29.6887 29.3128 29.8746 28.8386 29.8746H24.8799V18.5284V18.4023Z" stroke="#525252" stroke-width="0.820432" stroke-linecap="round" stroke-linejoin="round"/>
<path d="M17.8564 21.5547V32.0184" stroke="#525252" stroke-width="0.820432" stroke-linecap="round" stroke-linejoin="round"/>
<path d="M9.55566 30.3799V32.7752" stroke="#525252" stroke-width="0.820432" stroke-linecap="round" stroke-linejoin="round"/>
<path d="M26.0687 12.3526C26.0687 12.8274 25.9733 13.2977 25.7878 13.7364C25.6024 14.1751 25.3305 14.5737 24.9879 14.9095C24.6452 15.2453 24.2384 15.5117 23.7906 15.6934C23.3429 15.8751 22.863 15.9687 22.3784 15.9687H12.1982V23.4502C12.1982 24.1447 11.9167 24.8107 11.4155 25.3018C10.9144 25.7929 10.2347 26.0688 9.52592 26.0688C8.81718 26.0688 8.13747 25.7929 7.63632 25.3018C7.13517 24.8107 6.85361 24.1447 6.85361 23.4502V15.9687H4.56307C3.61809 15.9687 2.7118 15.6008 2.0436 14.9461C1.37539 14.2913 1 13.4032 1 12.4773C1 9.96793 1.37539 10.6632 2.0436 10.0085C2.7118 9.35371 3.61809 8.98587 4.56307 8.98587C4.81098 6.80084 5.86848 4.78089 7.53508 3.309C9.20167 1.83711 11.3615 1.01559 13.6051 1.00022C15.8486 0.984846 18.02 1.77668 19.7074 3.22559C20.6395 4.02591 21.3882 4.99597 21.9187 6.07171C22.1444 6.52939 22.3306 7.0062 22.4747 7.49721C22.605 7.94146 22.7008 8.39734 22.7602 8.86117C23.6604 8.92434 24.5026 9.31989 25.1167 9.96793C25.7308 10.616 26.0711 11.4682 26.0687 12.3526Z" fill="white"/>
<path d="M22.8369 8.94796C23.7403 9.01182 24.5855 9.41174 25.2017 10.0669C25.818 10.7221 26.1595 11.5838 26.1572 12.4779C26.1572 12.958 26.0614 13.4334 25.8753 13.877C25.6892 14.3206 25.4164 14.7236 25.0725 15.0631C24.7286 15.4026 24.3203 15.6719 23.871 15.8556C23.4217 16.0393 22.9402 16.1339 22.4538 16.1339H12.2377V23.6981C12.2377 24.4002 11.9552 25.0736 11.4523 25.5701C10.9493 26.0666 10.2672 26.3455 9.556 26.3455C8.84476 26.3455 8.16265 26.0666 7.65973 25.5701C7.15681 25.0736 6.87426 24.4002 6.87426 23.6981V16.1339H4.57564C3.62732 16.1339 2.71784 15.762 2.04728 15.1C1.37672 14.438 1 13.5402 1 12.604C1 11.6678 1.37672 10.7699 2.04728 10.1079C2.71784 9.44594 3.62732 9.07404 4.57564 9.07404C4.82442 6.86488 5.88565 4.82263 7.55813 3.33449C9.2306 1.84635 11.398 1.01577 13.6495 1.00022C15.901 0.984679 18.08 1.78525 19.7734 3.25016C20.7088 4.05931 21.4601 5.04009 21.9925 6.1277" stroke="#525252" stroke-width="0.820432" stroke-linecap="round" stroke-linejoin="round"/>
<path d="M6.69629 9.51408C6.69629 9.51408 6.69629 3.28027 13.5332 3.28027C20.3702 3.28027 20.9401 10.6868 20.9401 10.6868C20.9401 10.6868 23.6974 10.6868 23.6974 12.396C23.6974 14.1053 21.5099 14.1053 21.5099 14.1053" stroke="#FFEBE5" stroke-width="2.27898" stroke-linecap="round" stroke-linejoin="round"/>
</svg>
