<svg width="34" height="32" viewBox="0 0 34 32" fill="none" xmlns="http://www.w3.org/2000/svg">
<path d="M1 31.1641H32.7909" stroke="#525252" stroke-width="0.943962" stroke-linecap="round" stroke-linejoin="round"/>
<path d="M6.01471 20.4643C4.38712 22.3993 3.28684 24.7399 2.84473 27.2584H30.9466C30.4065 23.9329 28.7028 20.9074 26.1392 18.7214C23.5756 16.5354 20.3189 15.3311 16.9499 15.3232C14.41 15.3423 11.9356 16.0309 9.76827 17.2994" stroke="#525252" stroke-width="0.943962" stroke-linecap="round" stroke-linejoin="round"/>
<path d="M16.9499 15.2143C18.508 15.2143 19.771 13.9513 19.771 12.3933C19.771 10.8353 18.508 9.57227 16.9499 9.57227C15.3919 9.57227 14.1289 10.8353 14.1289 12.3933C14.1289 13.9513 15.3919 15.2143 16.9499 15.2143Z" fill="white" stroke="#525252" stroke-width="0.943962" stroke-linecap="round" stroke-linejoin="round"/>
<path d="M16.9482 1V5.01453" stroke="#FFB69D" stroke-width="0.943962" stroke-linecap="round" stroke-linejoin="round"/>
<path d="M8.59473 3.71289V7.61895" stroke="#FFB69D" stroke-width="0.943962" stroke-linecap="round" stroke-linejoin="round"/>
<path d="M25.3047 3.71289V7.61895" stroke="#FFB69D" stroke-width="0.943962" stroke-linecap="round" stroke-linejoin="round"/>
</svg>
