<svg width="33" height="33" viewBox="0 0 33 33" fill="none" xmlns="http://www.w3.org/2000/svg">
<path d="M18.1255 1L7.33398 32.3188" stroke="#525252" stroke-width="0.816399" stroke-linecap="round" stroke-linejoin="round"/>
<path d="M1 27.3921L32.3187 16.6006" stroke="#525252" stroke-width="0.816399" stroke-linecap="round" stroke-linejoin="round"/>
<path d="M22.8176 19.0641C26.9637 19.0641 30.3248 15.9132 30.3248 12.0262C30.3248 8.13925 26.9637 4.98828 22.8176 4.98828C18.6716 4.98828 15.3105 8.13925 15.3105 12.0262C15.3105 15.9132 18.6716 19.0641 22.8176 19.0641Z" fill="#FF865D"/>
<path d="M26.8403 4.51858C25.6938 3.84752 24.3594 3.46289 22.935 3.46289C18.6594 3.46289 15.1934 6.92895 15.1934 11.2046C15.1934 15.4802 18.6594 18.9463 22.935 18.9463C27.2107 18.9463 30.6768 15.4802 30.6768 11.2046C30.6768 9.98415 30.3944 8.82968 29.8914 7.80294" stroke="#525252" stroke-width="0.816399" stroke-linecap="round" stroke-linejoin="round"/>
<path d="M22.9352 14.02C24.49 14.02 25.7504 12.7596 25.7504 11.2048C25.7504 9.65007 24.49 8.38965 22.9352 8.38965C21.3805 8.38965 20.1201 9.65007 20.1201 11.2048C20.1201 12.7596 21.3805 14.02 22.9352 14.02Z" fill="white" stroke="#525252" stroke-width="0.816399" stroke-linecap="round" stroke-linejoin="round"/>
</svg>
