<svg width="38" height="38" viewBox="0 0 38 38" fill="none" xmlns="http://www.w3.org/2000/svg">
<path d="M27.2119 23.4619H30.9655V32.6454C30.9655 33.1963 30.7728 33.7246 30.4299 34.1142C30.0869 34.5038 29.6218 34.7226 29.1368 34.7226H29.0406C28.5556 34.7226 28.0905 34.5038 27.7475 34.1142C27.4046 33.7246 27.2119 33.1963 27.2119 32.6454V23.4619Z" fill="#FF9B79"/>
<path d="M24.1468 6.10122C23.396 7.32683 22.9893 8.7458 22.9893 10.2067V23.696H30.8483V2.34766C29.2327 2.34766 27.6683 2.84512 26.3601 3.75524" stroke="#525252" stroke-width="0.816399" stroke-linecap="round" stroke-linejoin="round"/>
<path d="M26.2734 31.966L26.2734 33.4322C26.2734 34.0233 26.5083 34.5901 26.9262 35.0081C27.3442 35.4261 27.9111 35.6609 28.5021 35.6609H28.6194C29.2105 35.6609 29.7774 35.4261 30.1953 35.0081C30.6133 34.5901 30.8481 34.0233 30.8481 33.4322V23.5791H26.2734L26.2734 29.0921" stroke="#525252" stroke-width="0.816399" stroke-linecap="round" stroke-linejoin="round"/>
<path d="M12.9098 36.6571C12.1715 36.6571 11.4634 36.3806 10.9413 35.8884C10.4193 35.3962 10.126 34.7286 10.126 34.0325L11.3364 19.7686H14.6044L15.8147 34.0325C15.8151 34.387 15.7393 34.7379 15.5919 35.064C15.4445 35.3901 15.2285 35.6847 14.9571 35.9299C14.6856 36.1752 14.3643 36.3661 14.0124 36.491C13.6605 36.616 13.2855 36.6725 12.9098 36.6571Z" fill="#FE6A38"/>
<path d="M18.7034 14.4512C18.4872 15.746 17.7557 16.9286 16.6422 17.7835C15.5286 18.6384 14.1072 19.1087 12.6369 19.1087C11.1665 19.1087 9.74507 18.6384 8.63155 17.7835C7.51803 16.9286 6.78652 15.746 6.57031 14.4512H18.7034Z" fill="white"/>
<path d="M9.80357 29.1525L10.6468 19.7686H14.2467L15.58 34.6066C15.5804 34.9753 15.4969 35.3403 15.3345 35.6795C15.1721 36.0188 14.9342 36.3252 14.6352 36.5803C14.3362 36.8355 13.9822 37.034 13.5946 37.164C13.207 37.294 12.7939 37.3528 12.3801 37.3368C11.5668 37.3368 10.7868 37.0491 10.2117 36.5371C9.63655 36.0251 9.31348 35.3307 9.31348 34.6066L9.55852 31.8795" stroke="#525252" stroke-width="0.816399" stroke-linecap="round" stroke-linejoin="round"/>
<path d="M18.2516 14.1377C18.0488 15.4421 17.3629 16.6335 16.3187 17.4947C15.2745 18.3559 13.9416 18.8296 12.5628 18.8296C11.184 18.8296 9.85109 18.3559 8.8069 17.4947C7.76272 16.6335 7.07676 15.4421 6.87402 14.1377H18.2516Z" stroke="#525252" stroke-width="0.816399" stroke-linecap="round" stroke-linejoin="round"/>
<path d="M6.87402 4.75391L6.87402 13.1994" stroke="#525252" stroke-width="0.816399" stroke-linecap="round" stroke-linejoin="round"/>
<path d="M12.5635 4.75391L12.5635 13.1994" stroke="#525252" stroke-width="0.816399" stroke-linecap="round" stroke-linejoin="round"/>
<path d="M18.252 4.75391L18.252 13.1994" stroke="#525252" stroke-width="0.816399" stroke-linecap="round" stroke-linejoin="round"/>
</svg>
