<svg width="70" height="70" viewBox="0 0 70 70" fill="none" xmlns="http://www.w3.org/2000/svg">
<path d="M27.1261 46.6566C28.9238 46.6566 30.3812 44.9564 30.3812 42.8591C30.3812 40.7617 28.9238 39.0615 27.1261 39.0615C25.3284 39.0615 23.8711 40.7617 23.8711 42.8591C23.8711 44.9564 25.3284 46.6566 27.1261 46.6566Z" fill="#FF9B79"/>
<path d="M23.9306 40.1451C23.549 40.7485 23.3281 41.4636 23.3281 42.2303C23.3281 44.3875 25.0769 46.1363 27.2342 46.1363C29.3914 46.1363 31.1402 44.3875 31.1402 42.2303C31.1402 40.073 29.3914 38.3242 27.2342 38.3242C26.8179 38.3242 26.4169 38.3893 26.0407 38.5099" stroke="#525252" stroke-width="0.943962" stroke-linecap="round" stroke-linejoin="round"/>
<path d="M29.2595 29.3118C29.0752 29.1274 28.7764 29.1274 28.592 29.3118L25.3237 32.5801C25.1394 32.7644 25.1394 33.0633 25.3237 33.2476L36.2949 44.2188C36.4793 44.4032 36.7781 44.4032 36.9624 44.2188L40.2308 40.9505C40.4151 40.7662 40.4151 40.4673 40.2308 40.283L29.2595 29.3118Z" stroke="#525252" stroke-width="0.943962" stroke-linecap="round" stroke-linejoin="round"/>
<path d="M41.6485 34.0411L36.3535 28.7461L33.6343 31.4653L38.9294 36.7603L41.6485 34.0411Z" fill="#FFB69D"/>
<path d="M33.2133 30.359L32.1486 31.4236L37.9795 37.2545L41.2479 33.9862L35.417 28.1553L34.8475 28.7248" stroke="#525252" stroke-width="0.943962" stroke-linecap="round" stroke-linejoin="round"/>
<path d="M18.7627 50.1433L23.7538 45.2607" stroke="#525252" stroke-width="0.943962" stroke-linecap="round" stroke-linejoin="round"/>
<path d="M39.0752 30.3885L42.9813 26.4824" stroke="#525252" stroke-width="0.943962" stroke-linecap="round" stroke-linejoin="round"/>
<path d="M43.0593 27.4716C42.7262 27.1764 42.4902 26.7885 42.3819 26.3583C42.2736 25.9282 42.2981 25.4757 42.452 25.0595L44.1726 21.0392C44.3034 20.8975 44.464 20.7862 44.6431 20.7132C44.8221 20.6402 45.0152 20.6073 45.2085 20.6169C45.4018 20.6265 45.5906 20.6783 45.7615 20.7687C45.9323 20.8591 46.0809 20.9858 46.1968 21.1398L49.4355 24.356C49.5842 24.4786 49.7038 24.6322 49.7859 24.8059C49.868 24.9796 49.9105 25.1691 49.9105 25.361C49.9105 25.5529 49.868 25.7424 49.7859 25.9161C49.7038 26.0898 49.5842 26.2435 49.4355 26.3661L45.4883 28.0747C45.0692 28.2276 44.6135 28.2518 44.1804 28.1443C43.7472 28.0368 43.3566 27.8024 43.0593 27.4716Z" fill="#FE6A38"/>
<path d="M41.8872 23.886L41.5644 24.6455C41.3993 25.0947 41.3732 25.5833 41.4892 26.0476C41.6053 26.512 41.8583 26.9307 42.2154 27.2495C42.5342 27.6066 42.9529 27.8596 43.4173 27.9757C43.8816 28.0918 44.3702 28.0656 44.8195 27.9005L49.051 26.056C49.2104 25.9236 49.3386 25.7578 49.4266 25.5702C49.5146 25.3827 49.5603 25.1781 49.5603 24.971C49.5603 24.7638 49.5146 24.5592 49.4266 24.3717C49.3386 24.1842 49.2104 24.0183 49.051 23.886L45.579 20.4139C45.4548 20.2477 45.2954 20.1109 45.1123 20.0133C44.9291 19.9157 44.7267 19.8598 44.5195 19.8494C44.3122 19.8391 44.1052 19.8746 43.9133 19.9534C43.7213 20.0322 43.5491 20.1524 43.4089 20.3054L42.8587 21.6002" stroke="#525252" stroke-width="0.943962" stroke-linecap="round" stroke-linejoin="round"/>
</svg>
