<svg width="32" height="31" viewBox="0 0 32 31" fill="none" xmlns="http://www.w3.org/2000/svg">
<path d="M1 12.3193H23.6398V22.7764C23.6398 24.5063 22.9208 26.1654 21.641 27.3887C20.3611 28.6119 18.6253 29.2992 16.8154 29.2992H7.93276C6.12281 29.2992 4.38698 28.6119 3.10715 27.3887C1.82732 26.1654 1.10833 24.5063 1.10833 22.7764V12.3193H1Z" fill="#FF865D"/>
<path d="M21.1935 29.5304C20.0949 30.1889 18.8294 30.5451 17.5271 30.5451H8.24473C6.35333 30.5451 4.5394 29.7937 3.20197 28.4563C1.86455 27.1189 1.1132 25.3049 1.1132 23.4135V11.9805H1H24.6586V23.4135C24.6586 24.6048 24.3605 25.7654 23.8057 26.7956" stroke="#525252" stroke-width="0.815033" stroke-linecap="round" stroke-linejoin="round"/>
<path d="M5.86816 6.54677V2.3584" stroke="#FFB69D" stroke-width="1.13199" stroke-linecap="round" stroke-linejoin="round"/>
<path d="M19.792 6.65984V2.24512" stroke="#FFB69D" stroke-width="1.13199" stroke-linecap="round" stroke-linejoin="round"/>
<path d="M12.7734 4.96196V1" stroke="#FFB69D" stroke-width="1.13199" stroke-linecap="round" stroke-linejoin="round"/>
<path d="M24.6592 14.4707H30.7719V18.9987C30.7719 20.1395 30.3187 21.2336 29.512 22.0403C28.7053 22.847 27.6112 23.3002 26.4704 23.3002H24.6592V14.4707Z" stroke="#525252" stroke-width="0.815033" stroke-linecap="round" stroke-linejoin="round"/>
<path d="M18.5446 17.1875H11.4131V24.3191H18.5446V17.1875Z" fill="white" stroke="#525252" stroke-width="0.815033" stroke-linecap="round" stroke-linejoin="round"/>
<path d="M14.9229 11.9805V17.1876" stroke="#525252" stroke-width="0.815033" stroke-linecap="round" stroke-linejoin="round"/>
</svg>
