<svg width="30" height="37" viewBox="0 0 30 37" fill="none" xmlns="http://www.w3.org/2000/svg">
<path d="M21.5 31.9255V34V36H9.38334V31.9255H9.47723C7.48835 30.7335 5.83811 28.9981 4.69892 26.9004C3.55973 24.8027 2.97332 22.4196 3.00093 20H28.9999C29.008 22.4156 28.4133 24.7906 27.2761 26.8847C26.1389 28.9788 23.4758 30.7177 21.5 31.9255Z" fill="#FE6A38"/>
<path d="M1.70962 24.5C1.2241 23.0565 0.982438 21.5356 1.00099 20H28.701C28.7096 22.4307 28.076 24.8205 26.8644 26.9277C25.6528 29.0349 23.906 30.7847 21.801 32V36.1H7.80098V32H7.90102C6.91971 31.4446 6.01579 30.7719 5.20749 30" stroke="#525252" stroke-width="0.87" stroke-linecap="round" stroke-linejoin="round"/>
<path d="M27 20C27 14.4772 21.6274 10 15 10C8.37258 10 3 14.4772 3 20" stroke="#525252" stroke-width="0.87" stroke-linecap="round"/>
<path d="M27 20C27 14.4772 21.6274 10 15 10" stroke="#525252" stroke-width="0.87" stroke-linecap="round"/>
<path d="M15.3535 1V5.01453" stroke="#FFB69D" stroke-width="0.943962" stroke-linecap="round" stroke-linejoin="round"/>
<path d="M7 3.01367V6.91973" stroke="#FFB69D" stroke-width="0.943962" stroke-linecap="round" stroke-linejoin="round"/>
<path d="M23.709 3.01367V6.91973" stroke="#FFB69D" stroke-width="0.943962" stroke-linecap="round" stroke-linejoin="round"/>
</svg>
